<svg width="415" height="40" viewBox="0 0 415 40" fill="none" xmlns="http://www.w3.org/2000/svg">
<g clip-path="url(#clip0_7_313)">
<path d="M0 10.1865H7.08305L10.3554 26.9123L14.2493 10.1865H21.747L25.6813 26.8282L28.9121 10.1865H35.5816L29.3267 33.5773H21.4975L17.8532 18.4027L14.0841 33.5773H6.29642L0 10.1865Z" fill="white"/>
<path d="M48.5925 33.9128C41.7993 33.9128 36.6626 29.3018 36.6626 21.8817C36.6626 14.4621 41.9229 9.85107 48.6745 9.85107C55.4676 9.85107 60.6875 14.4621 60.6875 21.8817C60.6875 29.3018 55.3856 33.9128 48.5925 33.9128ZM48.5925 27.7085C51.1187 27.7085 53.4797 25.8223 53.4797 21.8817C53.4797 17.8995 51.1603 16.0554 48.6745 16.0554C46.1067 16.0554 43.8704 17.8995 43.8704 21.8817C43.8704 25.8223 46.0235 27.7085 48.5925 27.7085Z" fill="white"/>
<path d="M71.3351 33.5772H64.252V10.1864H71.3351V14.085C72.9511 11.6114 75.4773 9.93506 78.5845 9.93506V17.5223H76.637C73.2826 17.5223 71.3351 18.696 71.3351 22.7202V33.5772Z" fill="white"/>
<path d="M91.1773 33.9128C85.0056 33.9128 80.8635 30.4334 80.5331 25.9059H87.533C87.6982 27.5413 89.1478 28.6308 91.0953 28.6308C92.9169 28.6308 93.8698 27.7926 93.8698 26.7446C93.8698 22.9717 81.2781 25.6966 81.2781 17.1034C81.2781 13.1207 84.6337 9.85107 90.6806 9.85107C96.6455 9.85107 99.9595 13.2049 100.415 17.8159H93.8698C93.6631 16.2226 92.4618 15.1746 90.4738 15.1746C88.8163 15.1746 87.9049 15.8456 87.9049 16.9772C87.9049 20.708 100.415 18.0673 100.539 26.7867C100.539 30.8524 96.977 33.9128 91.1773 33.9128Z" fill="white"/>
<path d="M104.684 3.89844H111.767V13.3304C113.175 11.318 115.702 9.93505 118.891 9.93505C124.152 9.93505 127.673 13.6238 127.673 19.9117V33.5772H120.631V20.8756C120.631 17.6901 118.891 15.929 116.199 15.929C113.506 15.929 111.767 17.6901 111.767 20.8756V33.5772H104.684L104.684 3.89844Z" fill="white"/>
<path d="M131.735 3.89856C131.735 1.71899 133.433 0 135.959 0C138.445 0 140.143 1.71898 140.143 3.89856C140.143 6.03663 138.445 7.75503 135.959 7.75503C133.433 7.75503 131.735 6.03661 131.735 3.89856Z" fill="white"/>
<path d="M139.48 10.1865H132.397V33.5773H139.48V10.1865Z" fill="white"/>
<path d="M158.619 9.85107C164.294 9.85107 168.808 14.4621 168.808 21.8402C168.808 29.2176 164.294 33.9128 158.619 33.9128C155.223 33.9128 152.778 32.278 151.494 30.3077V40H144.411V10.1866H151.494V13.4983C152.778 11.4444 155.223 9.85107 158.619 9.85107ZM156.506 16.097C153.855 16.097 151.452 18.1509 151.452 21.8817C151.452 25.6125 153.855 27.667 156.506 27.667C159.198 27.667 161.601 25.571 161.601 21.8402C161.601 18.1093 159.198 16.097 156.506 16.097Z" fill="white"/>
<path d="M210.813 33.9128C204.02 33.9128 198.883 29.3018 198.883 21.8817C198.883 14.4621 204.143 9.85107 210.895 9.85107C217.688 9.85107 222.908 14.4621 222.908 21.8817C222.908 29.3018 217.606 33.9128 210.813 33.9128ZM210.813 27.7085C213.339 27.7085 215.7 25.8223 215.7 21.8817C215.7 17.8995 213.38 16.0554 210.895 16.0554C208.327 16.0554 206.091 17.8995 206.091 21.8817C206.091 25.8223 208.244 27.7085 210.813 27.7085Z" fill="white"/>
<path d="M249.296 33.5773H242.213V30.3912C240.805 32.4036 238.319 33.8286 235.213 33.8286C229.869 33.8286 226.266 30.0978 226.266 23.8519V10.1865H233.307V22.8881C233.307 26.0736 235.088 27.8347 237.739 27.8347C240.473 27.8347 242.213 26.0736 242.213 22.8881V10.1865H249.296V33.5773Z" fill="white"/>
<path d="M263.589 33.9128C257.417 33.9128 253.275 30.4334 252.944 25.9059H259.945C260.11 27.5413 261.559 28.6308 263.507 28.6308C265.328 28.6308 266.281 27.7926 266.281 26.7446C266.281 22.9717 253.69 25.6966 253.69 17.1034C253.69 13.1207 257.045 9.85107 263.092 9.85107C269.057 9.85107 272.371 13.2049 272.826 17.8159H266.281C266.075 16.2226 264.873 15.1746 262.885 15.1746C261.228 15.1746 260.317 15.8456 260.317 16.9772C260.317 20.708 272.826 18.0673 272.951 26.7867C272.951 30.8524 269.389 33.9128 263.589 33.9128Z" fill="white"/>
<path d="M287.367 33.9128C280.573 33.9128 275.686 29.3018 275.686 21.8817C275.686 14.4621 280.491 9.85107 287.367 9.85107C294.118 9.85107 298.882 14.3785 298.882 21.5047C298.882 22.1757 298.84 22.8882 298.758 23.6006H282.728C282.976 26.6605 284.84 28.086 287.118 28.086C289.106 28.086 290.225 27.0801 290.805 25.8223H298.343C297.225 30.3913 293.125 33.9128 287.367 33.9128ZM282.769 19.6185H291.633C291.633 17.0613 289.646 15.5943 287.284 15.5943C284.965 15.5943 283.184 17.0193 282.769 19.6185Z" fill="white"/>
<path d="M172.577 3.89844H179.66V13.3304C181.068 11.318 183.595 9.93505 186.784 9.93505C192.045 9.93505 195.566 13.6238 195.566 19.9117V33.5772H188.524V20.8756C188.524 17.6901 186.784 15.929 184.092 15.929C181.399 15.929 179.66 17.6901 179.66 20.8756V33.5772H172.577L172.577 3.89844Z" fill="white"/>
<path d="M337.951 4.72343L337.791 4.69962L337.639 4.75939C336.283 5.2917 335.123 6.21602 334.184 7.50739C328.16 11.943 322.541 15.4403 317.471 17.9108L317.468 13.2472L317.822 8.8871L317.114 8.53654C316.966 7.25981 316.098 6.21964 314.528 5.44103L314.4 5.37764H312.646C311.333 5.37764 309.766 6.22206 309.766 10.2444L309.772 10.993L310.036 12.882C309.882 13.0686 309.766 13.3673 309.766 13.8416L309.719 13.8782L309.767 14.5483C310.412 23.3617 311.28 29.7575 312.348 33.5615C312.375 36.7045 313.816 38.852 316.633 39.9427L316.78 40.0001L316.937 39.9787C318.633 39.7446 319.952 39.1324 320.858 38.1588L321.096 37.902L318.869 29.8526C319.004 29.688 319.082 29.4679 319.082 29.2143V28.8911C319.082 28.7125 319.052 28.5485 318.994 28.4015C323.402 30.6288 329.127 32.9701 336.036 35.3699L336.193 35.4242L337.774 35.1095L338.353 35.4034H338.499C339.563 35.4034 340.053 33.8358 340.393 32.3024L340.408 32.1658C340.408 31.8812 340.408 31.6123 338.014 28.507L337.9 28.3612L337.728 28.3009C331.825 26.2352 327.322 24.3475 324.333 22.6867C334.99 16.9444 340.563 12.4923 341.363 9.0822L341.38 6.68421H340.733C339.737 5.49535 338.824 4.85329 337.951 4.72343ZM352.196 18.423C352.196 12.796 350.578 9.94313 347.387 9.94313C346.456 9.94313 345.403 10.8333 343.971 12.8289L343.832 13.0228L343.857 13.2606C344.368 18.2273 345.144 22.0245 346.129 24.4353C347.62 31.8214 349.524 36.0296 351.948 37.3008L352.082 37.371H352.232C353.181 37.371 354.459 36.7966 356.139 35.6144L356.459 35.3888L356.058 32.9695C352.866 22.241 352.196 19.1376 352.196 18.423ZM348.997 7.82383C350.079 7.82383 351.559 7.35983 352.469 5.14841L352.516 4.90881C352.516 3.05528 351.7 0.705457 347.81 0.0354027L347.608 0L346.709 0.470122L344.506 1.96208V4.10583L344.603 4.25886C346.105 6.65806 347.543 7.82383 348.997 7.82383ZM382.876 11.2223C381.123 8.36098 379.665 6.82019 378.335 6.43551C377.886 5.38801 375.792 4.1521 367.931 2.44007L367.701 2.39003L367.496 2.50709C367.214 2.66993 366.891 2.74855 366.509 2.74855H364.246C361.622 2.74855 358.787 3.77778 355.819 5.80745L355.548 5.99283V9.8852H356.165C356.337 9.8852 356.861 9.99743 358.02 11.0351L358.195 11.1919H359.422V13.8416C359.422 19.4193 360.387 25.4523 362.289 31.7781C361.66 32.9963 361.365 33.8511 361.365 34.456C361.365 35.5973 362.193 36.7265 363.898 37.9075L364.055 38.0167H364.246C365.923 38.0167 370.883 38.0167 371.305 35.1785C374.309 33.6414 375.214 33.0158 375.577 32.6896C382.619 29.321 386.189 25.1829 386.189 20.3906L386.184 18.3486C385.957 16.4305 384.868 14.0898 382.876 11.2223ZM378.819 19.0839C378.819 21.9831 375.446 24.9999 368.792 28.054C367.686 25.0213 367.126 20.7984 367.126 15.4867L367.12 14.4154L366.843 12.4314C367.067 12.0241 367.217 11.2559 367.378 9.89254C371.791 10.0096 375.121 11.5528 377.28 14.483L378.819 18.5388V19.0839ZM414.984 19.8491C414.501 17.72 414.205 16.9018 413.835 16.6207C411.855 13.4264 408.452 11.8064 403.719 11.8064L403.137 11.8479L403.133 11.932L402.871 11.7863L397.551 12.4509C403.654 9.22615 404.835 8.77985 405.011 8.74259H405.628V6.30927C405.628 4.52219 404.877 3.13331 403.397 2.18092L403.246 2.0834H401.456L401.244 2.12122C397.956 3.33752 395.9 4.30392 394.967 5.07222C391.831 6.6666 389.681 9.57004 388.573 13.7044L388.551 13.8678C388.551 15.8841 389.268 17.6109 390.682 18.9998L390.861 19.176H391.112C391.688 19.176 394.55 19.0541 399.749 18.7986C405.899 19.6321 407.437 20.5021 407.821 20.8783C405.407 22.8172 402.364 24.3665 398.766 25.4859C394.346 25.5054 392.105 26.9211 392.105 29.6947V31.0464H392.424V31.5043C392.424 32.0147 392.795 32.5799 394.646 33.8176L394.8 33.9212H394.986C398.079 33.9212 401.326 33.0506 404.556 31.369C411.486 28.9966 415 25.1676 415 19.9888L414.984 19.8491Z" fill="#EC007A"/>
</g>
<defs>
<clipPath id="clip0_7_313">
<rect width="415" height="40" fill="white"/>
</clipPath>
</defs>
</svg>
